<svg width="90" height="90" viewBox="0 0 90 90" fill="none" xmlns="http://www.w3.org/2000/svg">
<circle cx="45" cy="45" r="45" fill="white"/>
<path d="M24.7186 61.3524C23.8841 61.3524 23.179 61.0634 22.6033 60.4856C22.0276 59.9078 21.7397 59.2 21.7397 58.3624C21.7397 57.5247 22.0276 56.8207 22.6033 56.2502C23.179 55.6798 23.8841 55.3946 24.7186 55.3946H66.5496C67.3841 55.3946 68.0892 55.6835 68.6649 56.2613C69.2406 56.8392 69.5285 57.5469 69.5285 58.3846C69.5285 59.2222 69.2406 59.9263 68.6649 60.4967C68.0892 61.0671 67.3841 61.3524 66.5496 61.3524H24.7186ZM24.7186 47.3453C23.8841 47.3453 23.179 47.0564 22.6033 46.4786C22.0276 45.9007 21.7397 45.193 21.7397 44.3553C21.7397 43.5177 22.0276 42.8136 22.6033 42.2432C23.179 41.6728 23.8841 41.3876 24.7186 41.3876H66.5496C67.3841 41.3876 68.0892 41.6765 68.6649 42.2543C69.2406 42.8321 69.5285 43.5399 69.5285 44.3775C69.5285 45.2152 69.2406 45.9193 68.6649 46.4897C68.0892 47.0601 67.3841 47.3453 66.5496 47.3453H24.7186ZM24.7186 33.3383C23.8841 33.3383 23.179 33.0494 22.6033 32.4715C22.0276 31.8937 21.7397 31.1859 21.7397 30.3483C21.7397 29.5106 22.0276 28.796 22.6033 28.2045C23.179 27.6129 23.8841 27.3171 24.7186 27.3171H66.5496C67.3841 27.3171 68.0892 27.6166 68.6649 28.2156C69.2406 28.8145 69.5285 29.5328 69.5285 30.3705C69.5285 31.2082 69.2406 31.9122 68.6649 32.4826C68.0892 33.0531 67.3841 33.3383 66.5496 33.3383H24.7186Z" fill="#042E52"/>
</svg>
