<svg width="113" height="116" viewBox="0 0 113 116" fill="none" xmlns="http://www.w3.org/2000/svg">
<ellipse cx="56.5" cy="58" rx="56.5" ry="58" fill="#042E52"/>
<path d="M31.0351 79.0761C29.9873 79.0761 29.102 78.7037 28.3792 77.959C27.6563 77.2142 27.2949 76.302 27.2949 75.2224C27.2949 74.1427 27.6563 73.2353 28.3792 72.5C29.102 71.7648 29.9873 71.3972 31.0351 71.3972H83.5562C84.604 71.3972 85.4893 71.7696 86.2121 72.5143C86.9349 73.2591 87.2963 74.1713 87.2963 75.251C87.2963 76.3306 86.9349 77.2381 86.2121 77.9733C85.4893 78.7085 84.604 79.0761 83.5562 79.0761H31.0351ZM31.0351 61.0226C29.9873 61.0226 29.102 60.6502 28.3792 59.9055C27.6563 59.1607 27.2949 58.2485 27.2949 57.1688C27.2949 56.0892 27.6563 55.1817 28.3792 54.4465C29.102 53.7113 29.9873 53.3437 31.0351 53.3437H83.5562C84.604 53.3437 85.4893 53.7161 86.2121 54.4608C86.9349 55.2056 87.2963 56.1178 87.2963 57.1974C87.2963 58.2771 86.9349 59.1846 86.2121 59.9198C85.4893 60.655 84.604 61.0226 83.5562 61.0226H31.0351ZM31.0351 42.9691C29.9873 42.9691 29.102 42.5967 28.3792 41.8519C27.6563 41.1072 27.2949 40.1949 27.2949 39.1153C27.2949 38.0357 27.6563 37.1146 28.3792 36.3522C29.102 35.5897 29.9873 35.2085 31.0351 35.2085H83.5562C84.604 35.2085 85.4893 35.5945 86.2121 36.3665C86.9349 37.1385 87.2963 38.0643 87.2963 39.1439C87.2963 40.2236 86.9349 41.131 86.2121 41.8662C85.4893 42.6015 84.604 42.9691 83.5562 42.9691H31.0351Z" fill="white"/>
</svg>
