<svg width="140" height="140" viewBox="0 0 140 140" fill="none" xmlns="http://www.w3.org/2000/svg">
<circle cx="70" cy="70" r="69" fill="white" stroke="black" stroke-width="2"/>
<g opacity="0.9">
<path d="M70.0001 68.3247C65.0094 68.3247 60.895 66.7056 57.6568 63.4674C54.4185 60.2291 52.7994 56.1147 52.7994 51.124C52.7994 46.1001 54.4185 41.9773 57.6568 38.7557C60.895 35.5341 65.0094 33.9233 70.0001 33.9233C74.9907 33.9233 79.1052 35.5341 82.3434 38.7557C85.5816 41.9773 87.2008 46.1001 87.2008 51.124C87.2008 56.1147 85.5816 60.2291 82.3434 63.4674C79.1052 66.7056 74.9907 68.3247 70.0001 68.3247ZM31.1113 107.892V98.0498C31.1113 95.2645 31.8492 92.8382 33.325 90.7707C34.8008 88.7033 36.7187 87.1145 39.0786 86.0044C44.5363 83.578 49.7979 81.7498 54.8634 80.52C59.9289 79.2903 64.9744 78.6754 70.0001 78.6754C75.0257 78.6754 80.058 79.3036 85.0969 80.5599C90.1358 81.8163 95.3842 83.6311 100.842 86.0044C103.255 87.1145 105.199 88.7033 106.675 90.7707C108.151 92.8382 108.889 95.2645 108.889 98.0498V107.892H31.1113Z" fill="black"/>
</g>
</svg>
